<svg xmlns="http://www.w3.org/2000/svg" viewBox="0 0 512 512">
  <!-- 精灵球上半部分 - 红色 -->
  <circle cx="256" cy="256" r="256" fill="#e53935"/>
  <path d="M256 0C114.84 0 0 114.84 0 256c0 44.72 11.49 86.87 31.64 123.74C77.49 460.83 161.3 512 256 512c94.7 0 178.51-51.17 224.36-132.26C500.51 342.87 512 300.72 512 256 512 114.84 397.16 0 256 0z" fill="#e53935"/>
  
  <!-- 精灵球下半部分 - 白色 -->
  <path d="M256 256v256c141.16 0 256-114.84 256-256H256z" fill="#f5f5f5"/>
  <path d="M0 256c0 141.16 114.84 256 256 256V256H0z" fill="#f5f5f5"/>
  
  <!-- 精灵球中间黑色带 -->
  <path d="M512 256c0-12.3-.88-24.4-2.56-36.26H2.56C.88 231.6 0 243.7 0 256s.88 24.4 2.56 36.26h506.88c1.68-11.86 2.56-23.96 2.56-36.26z" fill="#546e7a"/>
  
  <!-- 精灵球中间按钮 - 外圈 -->
  <circle cx="256" cy="256" r="74.67" fill="#546e7a"/>
  
  <!-- 精灵球中间按钮 - 内圈 -->
  <circle cx="256" cy="256" r="42.67" fill="#f5f5f5"/>
  
  <!-- 精灵球中间按钮 - 中心点 -->
  <circle cx="256" cy="256" r="21.33" fill="#546e7a"/>
  
  <!-- 精灵球上半部分高光 -->
  <path d="M97.69 150.77s47.24-75.59 158.31-75.59c0 0 79.16-1.54 158.31 75.59" fill="none" stroke="#ffcdd2" stroke-width="20" stroke-linecap="round" opacity=".5"/>
</svg>