<svg xmlns="http://www.w3.org/2000/svg" viewBox="0 0 300 400" width="300" height="400">
  <!-- 插件背景 -->
  <rect x="0" y="0" width="300" height="400" rx="10" fill="#FFFFFF" stroke="#DDDDDD" stroke-width="2"/>
  
  <!-- 插件头部 -->
  <rect x="0" y="0" width="300" height="50" rx="10" fill="#3D7DCA"/>
  <rect x="0" y="10" width="300" height="50" rx="0" fill="#3D7DCA"/>
  
  <!-- 插件标题 -->
  <circle cx="25" cy="25" r="15" fill="#FFFFFF"/>
  <path d="M25 10C17.5 10 10 17.5 10 25H25V10Z" fill="#FF0000"/>
  <path d="M25 25H10C10 32.5 17.5 40 25 40C32.5 40 40 32.5 40 25H25Z" fill="#FFFFFF"/>
  <path d="M10 23H40V27H10V23Z" fill="#000000"/>
  <circle cx="25" cy="25" r="5" fill="#FFFFFF" stroke="#000000" stroke-width="1"/>
  
  <text x="50" y="30" font-family="Arial" font-size="16" font-weight="bold" fill="#FFFFFF">KOL Pokemon</text>
  <text x="200" y="30" font-family="Arial" font-size="10" fill="#EEEEEE">哇鹅科技出品</text>
  
  <!-- KOL信息区域 -->
  <rect x="20" y="70" width="260" height="100" rx="5" fill="#F5F5F5"/>
  
  <!-- KOL头像 -->
  <image x="30" y="80" width="40" height="40" href="pokemons icon/001-pikachu.png"/>
  
  <!-- KOL信息 -->
  <text x="80" y="95" font-family="Arial" font-size="14" font-weight="bold" fill="#333333">皮卡丘官方</text>
  <text x="80" y="115" font-family="Arial" font-size="12" fill="#666666">粉丝数: 1,000,000</text>
  <rect x="80" y="125" width="80" height="20" rx="10" fill="#FF0000"/>
  <text x="90" y="139" font-family="Arial" font-size="10" fill="#FFFFFF">YouTube</text>
  
  <!-- URL显示区域 -->
  <rect x="20" y="180" width="260" height="30" rx="5" fill="#EEEEEE"/>
  <text x="30" y="200" font-family="Arial" font-size="10" fill="#666666">https://youtube.com/pikachu</text>
  
  <!-- 飞书输入区域 -->
  <text x="20" y="230" font-family="Arial" font-size="12" fill="#333333">飞书多维表格链接:</text>
  <rect x="20" y="240" width="260" height="30" rx="5" fill="#FFFFFF" stroke="#DDDDDD" stroke-width="1"/>
  <text x="30" y="260" font-family="Arial" font-size="10" fill="#999999">https://xxx.feishu.cn/base/ABC123</text>
  
  <!-- 同步按钮 -->
  <rect x="20" y="290" width="260" height="40" rx="20" fill="#3D7DCA"/>
  <circle cx="45" cy="310" r="10" fill="#FFFFFF"/>
  <path d="M45 300C40 300 35 305 35 310H45V300Z" fill="#FF0000"/>
  <path d="M45 310H35C35 315 40 320 45 320C50 320 55 315 55 310H45Z" fill="#FFFFFF"/>
  <path d="M35 309H55V311H35V309Z" fill="#000000"/>
  <text x="65" y="315" font-family="Arial" font-size="14" font-weight="bold" fill="#FFFFFF">一键同步到飞书多维表格</text>
  
  <!-- 成功状态 -->
  <rect x="20" y="350" width="260" height="30" rx="5" fill="#E6F7E6"/>
  <text x="30" y="370" font-family="Arial" font-size="12" fill="#2E7D32">同步成功！KOL链接已添加到飞书多维表格</text>
</svg>